<svg width="149" height="28" viewBox="0 0 149 28" fill="none" xmlns="http://www.w3.org/2000/svg">
<path d="M1.68286 4.02248V5.56944H1.73629C2.56436 4.38343 3.73969 3.76465 5.26228 3.76465C5.93009 3.76465 6.54447 3.89356 7.10542 4.17717C7.66637 4.46078 8.04034 4.89909 8.25404 5.56944C8.62801 5.00222 9.10883 4.56391 9.69649 4.25452C10.2842 3.94513 10.952 3.79043 11.6732 3.79043C12.2341 3.79043 12.715 3.842 13.1691 3.97091C13.6232 4.09982 13.9971 4.25452 14.3177 4.51234C14.6382 4.74439 14.8786 5.07956 15.0656 5.4663C15.2526 5.85304 15.3327 6.31713 15.3327 6.85857V14.5934H13.543V7.68362C13.543 7.34844 13.5163 7.03905 13.4629 6.75544C13.4095 6.47183 13.3026 6.214 13.1424 6.00774C12.9821 5.80148 12.7684 5.621 12.5013 5.51787C12.2341 5.38896 11.8602 5.33739 11.4328 5.33739C10.5513 5.33739 9.85677 5.59522 9.34924 6.05931C8.84171 6.54918 8.6013 7.19375 8.6013 8.01879V14.5934H6.81159V7.68362C6.81159 7.34844 6.78488 7.03905 6.70474 6.75544C6.65131 6.47183 6.54446 6.214 6.38419 6.00774C6.22392 5.80148 6.01022 5.621 5.76982 5.51787C5.50269 5.41474 5.18215 5.33739 4.75476 5.33739C4.22051 5.33739 3.79312 5.44052 3.41915 5.64679C3.04518 5.85305 2.75134 6.08509 2.51094 6.3687C2.27053 6.65231 2.11026 6.9617 2.00341 7.24531C1.89656 7.5547 1.84313 7.81253 1.84313 8.01879V14.5934H0V4.04826H1.68286V4.02248Z" fill="#034EA1"/>
<path d="M25.8304 14.7733C25.3763 14.7733 25.0023 14.6444 24.7085 14.3865C24.4414 14.1287 24.3078 13.7162 24.3078 13.149C23.827 13.7162 23.2393 14.1287 22.5982 14.3865C21.9304 14.6444 21.2359 14.7733 20.488 14.7733C20.0072 14.7733 19.5263 14.7217 19.0989 14.6186C18.6715 14.5154 18.2709 14.335 17.9503 14.1029C17.6298 13.8709 17.3627 13.5615 17.1757 13.1747C16.9887 12.8138 16.8818 12.3497 16.8818 11.8083C16.8818 11.2153 16.9887 10.7254 17.2024 10.3387C17.4161 9.95191 17.6832 9.64252 18.0305 9.41047C18.3777 9.17843 18.7784 8.99795 19.2058 8.86904C19.6599 8.74012 20.114 8.63699 20.5681 8.55964C21.0489 8.45651 21.5297 8.40495 21.9838 8.35338C22.438 8.30182 22.8119 8.22447 23.1592 8.14712C23.5064 8.06977 23.7736 7.94086 23.9605 7.76038C24.1475 7.5799 24.2544 7.34786 24.2544 7.01268C24.2544 6.62594 24.1742 6.31655 24.0407 6.08451C23.8804 5.85246 23.6934 5.67198 23.4797 5.54307C23.2393 5.41416 22.9989 5.33681 22.7051 5.31103C22.4112 5.25946 22.1441 5.25946 21.8503 5.25946C21.1023 5.25946 20.4613 5.38837 19.9537 5.67198C19.4462 5.95559 19.1791 6.47125 19.1257 7.24473H17.3359C17.3627 6.60016 17.4962 6.03294 17.7633 5.59463C18.0037 5.15633 18.351 4.79537 18.7784 4.51176C19.2058 4.22815 19.6866 4.02189 20.2476 3.91876C20.8085 3.78985 21.3695 3.73828 21.9838 3.73828C22.4647 3.73828 22.9722 3.76407 23.453 3.84141C23.9338 3.91876 24.3879 4.04767 24.7619 4.25393C25.1626 4.4602 25.4831 4.76959 25.7235 5.13055C25.964 5.51729 26.0708 6.00716 26.0708 6.62594V12.0403C26.0708 12.4528 26.0975 12.7364 26.1509 12.9427C26.2044 13.1232 26.3646 13.2263 26.6585 13.2263C26.8187 13.2263 27.0057 13.2005 27.2194 13.1232V14.4639C26.792 14.6959 26.3646 14.7733 25.8304 14.7733ZM23.3195 9.46204C22.9455 9.53938 22.5715 9.59095 22.1708 9.64252C21.7702 9.69408 21.3695 9.74565 20.9688 9.79721C20.5681 9.84878 20.1941 9.95191 19.8736 10.0808C19.553 10.2097 19.2859 10.416 19.0722 10.6738C18.8585 10.9317 18.7784 11.2668 18.7784 11.7051C18.7784 11.9887 18.8318 12.2208 18.9654 12.427C19.0722 12.6333 19.2325 12.788 19.4195 12.9169C19.6065 13.0458 19.8469 13.1232 20.0873 13.1747C20.3544 13.2263 20.6215 13.2521 20.8887 13.2521C21.4763 13.2521 21.9838 13.1747 22.4112 13.0201C22.8386 12.8654 23.1859 12.6591 23.453 12.427C23.7201 12.195 23.9071 11.9372 24.0407 11.6536C24.1742 11.37 24.2277 11.1121 24.2277 10.8801V9.10108C23.9605 9.28156 23.6667 9.38469 23.3195 9.46204Z" fill="#034EA1"/>
<path d="M29.9973 4.02209V5.69796H30.0507C30.7987 4.40883 31.974 3.79004 33.6034 3.79004C34.3247 3.79004 34.9123 3.89317 35.3931 4.07365C35.874 4.25413 36.2479 4.53774 36.5418 4.87292C36.8356 5.20809 37.0493 5.62061 37.1561 6.0847C37.263 6.54879 37.3431 7.06444 37.3431 7.63166V14.5672H35.5534V7.4254C35.5534 6.78083 35.3664 6.26518 34.9658 5.87844C34.5651 5.4917 34.0308 5.31122 33.3363 5.31122C32.7754 5.31122 32.3213 5.38857 31.9206 5.56905C31.5199 5.72374 31.1726 5.95579 30.9055 6.26518C30.6384 6.57457 30.4247 6.90975 30.2911 7.32227C30.1576 7.73479 30.0775 8.1731 30.0775 8.63719V14.593H28.3145V4.04787H29.9973V4.02209Z" fill="#034EA1"/>
<path d="M39.5337 0H41.3234V2.11418H39.5337V0ZM41.3234 14.5672H39.5337V4.0221H41.3234V14.5672Z" fill="#034EA1"/>
<path d="M45.3302 4.02209V5.44013H45.3837C45.6775 4.84713 46.1316 4.43461 46.7727 4.17678C47.4138 3.91895 48.1083 3.79004 48.8562 3.79004C49.711 3.79004 50.4323 3.94474 51.0733 4.22835C51.6877 4.53774 52.222 4.92448 52.6494 5.44013C53.0768 5.95579 53.3706 6.54879 53.5843 7.19336C53.798 7.86371 53.9048 8.55984 53.9048 9.30754C53.9048 10.0552 53.798 10.7514 53.611 11.4217C53.3973 12.0921 53.1035 12.6593 52.6761 13.1749C52.2487 13.6648 51.7411 14.0515 51.1001 14.3352C50.4857 14.6188 49.7377 14.7735 48.9097 14.7735C48.6425 14.7735 48.3487 14.7477 48.0015 14.6961C47.6809 14.6446 47.3336 14.5414 47.0131 14.4383C46.6926 14.3094 46.372 14.1547 46.1049 13.9484C45.8111 13.7422 45.5706 13.4843 45.3837 13.1749H45.3302V18.5893H43.5405V4.02209H45.3302ZM51.7679 7.76057C51.6343 7.29649 51.4206 6.88396 51.1535 6.49722C50.8864 6.13626 50.5391 5.82687 50.085 5.62061C49.6576 5.41435 49.1501 5.28544 48.5624 5.28544C47.948 5.28544 47.4405 5.41435 47.0131 5.62061C46.5857 5.85266 46.2385 6.16205 45.9713 6.523C45.7042 6.90974 45.5172 7.32227 45.3837 7.78635C45.2768 8.25044 45.1967 8.74032 45.1967 9.23019C45.1967 9.74584 45.2501 10.2357 45.3837 10.7256C45.5172 11.2154 45.7042 11.628 45.998 11.9889C46.2652 12.3499 46.6391 12.6593 47.0665 12.8655C47.4939 13.0976 48.0282 13.2007 48.6425 13.2007C49.2569 13.2007 49.7912 13.0976 50.1918 12.8655C50.6192 12.6335 50.9398 12.3241 51.2069 11.9374C51.4473 11.5506 51.6343 11.1123 51.7679 10.6224C51.8747 10.1326 51.9281 9.64271 51.9281 9.10127C51.9816 8.71453 51.9014 8.22466 51.7679 7.76057Z" fill="#034EA1"/>
<path d="M63.7888 14.7733C63.3347 14.7733 62.9607 14.6444 62.6936 14.3865C62.4265 14.1287 62.2929 13.7162 62.2929 13.149C61.8121 13.7162 61.2244 14.1287 60.5833 14.3865C59.9155 14.6444 59.221 14.7733 58.4731 14.7733C57.9923 14.7733 57.5114 14.7217 57.0841 14.6186C56.6567 14.5154 56.256 14.335 55.9354 14.1029C55.6149 13.8709 55.3478 13.5615 55.1608 13.1747C54.9738 12.8138 54.8669 12.3497 54.8669 11.8083C54.8669 11.2153 54.9738 10.7254 55.1875 10.3387C55.4012 9.95191 55.6683 9.64252 56.0156 9.41047C56.3628 9.17843 56.7635 8.99795 57.1909 8.86904C57.645 8.74012 58.0991 8.63699 58.5532 8.55964C59.034 8.45651 59.5149 8.40495 59.969 8.35338C60.4231 8.30182 60.797 8.22447 61.1443 8.14712C61.4915 8.06977 61.7587 7.94086 61.9457 7.76038C62.1326 7.5799 62.2395 7.34786 62.2395 7.01268C62.2395 6.62594 62.1594 6.31655 62.0258 6.08451C61.8655 5.85246 61.6785 5.67198 61.4648 5.54307C61.2244 5.41416 60.984 5.33681 60.6902 5.31103C60.3964 5.25946 60.1292 5.25946 59.8354 5.25946C59.0875 5.25946 58.4464 5.38837 57.9388 5.67198C57.4313 5.95559 57.1642 6.47125 57.1108 7.24473H55.3211C55.3478 6.60016 55.4813 6.03294 55.7484 5.59463C55.9889 5.15633 56.3361 4.79537 56.7635 4.51176C57.1909 4.22815 57.6717 4.02189 58.2327 3.91876C58.7936 3.78985 59.3546 3.73828 59.969 3.73828C60.4498 3.73828 60.9573 3.76407 61.4381 3.84141C61.9189 3.91876 62.373 4.04767 62.747 4.25393C63.1477 4.4602 63.4682 4.76959 63.7087 5.13055C63.9491 5.51729 64.0559 6.00716 64.0559 6.62594V12.0403C64.0559 12.4528 64.0826 12.7364 64.136 12.9427C64.1895 13.1232 64.3497 13.2263 64.6436 13.2263C64.8038 13.2263 64.9908 13.2005 65.2045 13.1232V14.4639C64.7771 14.6959 64.3497 14.7733 63.7888 14.7733ZM61.2778 9.46204C60.9039 9.53938 60.5299 9.59095 60.1292 9.64252C59.7286 9.69408 59.3279 9.74565 58.9272 9.79721C58.5265 9.84878 58.1525 9.95191 57.832 10.0808C57.5114 10.2097 57.2443 10.416 57.0306 10.6738C56.8169 10.9317 56.7368 11.2668 56.7368 11.7051C56.7368 11.9887 56.7902 12.2208 56.9238 12.427C57.0306 12.6333 57.1909 12.788 57.3779 12.9169C57.5649 13.0458 57.8053 13.1232 58.0457 13.1747C58.3128 13.2263 58.5799 13.2521 58.847 13.2521C59.4347 13.2521 59.9422 13.1747 60.3696 13.0201C60.797 12.8654 61.1443 12.6591 61.4114 12.427C61.6785 12.195 61.8655 11.9372 61.9991 11.6536C62.1326 11.37 62.1861 11.1121 62.1861 10.8801V9.10108C61.9457 9.28156 61.6518 9.38469 61.2778 9.46204Z" fill="#034EA1"/>
<path d="M68.1696 0H66.3799V14.5414H68.1696V0Z" fill="#034EA1"/>
<path d="M72.1487 0V5.56906H72.2021C72.3357 5.23389 72.5494 4.97606 72.7898 4.74402C73.0302 4.51197 73.324 4.33149 73.6446 4.20258C73.9651 4.04788 74.2857 3.94475 74.6329 3.89319C74.9802 3.81584 75.3007 3.79006 75.648 3.79006C76.3692 3.79006 76.9569 3.89319 77.4377 4.07367C77.9185 4.25415 78.2925 4.53776 78.5863 4.87293C78.8802 5.20811 79.0938 5.62063 79.2007 6.08472C79.3075 6.54881 79.3877 7.06446 79.3877 7.63168V14.5672H77.598V7.42542C77.598 6.78085 77.411 6.26519 77.0103 5.87845C76.6096 5.49171 76.0754 5.31124 75.3809 5.31124C74.8199 5.31124 74.3658 5.38858 73.9651 5.56906C73.5644 5.72376 73.2172 5.9558 72.9501 6.26519C72.6829 6.57459 72.496 6.90976 72.3357 7.32229C72.2021 7.73481 72.122 8.17311 72.122 8.6372V14.593H70.3323V0.0515646H72.1487V0Z" fill="#00B7AC"/>
<path d="M81.2577 7.1164C81.4714 6.44605 81.8186 5.85304 82.2727 5.36317C82.7268 4.8733 83.2878 4.48656 83.9289 4.20295C84.5967 3.91934 85.3446 3.76465 86.1994 3.76465C87.0809 3.76465 87.8288 3.91934 88.4966 4.20295C89.1377 4.48656 89.6987 4.8733 90.1528 5.36317C90.6069 5.85304 90.9541 6.44605 91.1678 7.1164C91.3815 7.78675 91.5151 8.50866 91.5151 9.28214C91.5151 10.0556 91.4083 10.7775 91.1678 11.4479C90.9541 12.1182 90.6069 12.6855 90.1528 13.2011C89.6987 13.691 89.1377 14.0777 88.4966 14.3613C87.8288 14.6449 87.0809 14.7739 86.1994 14.7739C85.3446 14.7739 84.57 14.6449 83.9289 14.3613C83.2611 14.0777 82.7001 13.691 82.2727 13.2011C81.8186 12.7112 81.4714 12.1182 81.2577 11.4479C81.044 10.7775 80.9104 10.0556 80.9104 9.28214C80.9104 8.53444 81.0173 7.81253 81.2577 7.1164ZM83.0741 11.0096C83.2611 11.4995 83.5015 11.912 83.7953 12.2472C84.1159 12.5823 84.4631 12.8402 84.8905 13.0206C85.3179 13.2011 85.7453 13.2785 86.1994 13.2785C86.6535 13.2785 87.1076 13.2011 87.5083 13.0206C87.9357 12.8402 88.2829 12.5823 88.6035 12.2472C88.924 11.912 89.1644 11.4995 89.3247 11.0096C89.5117 10.5197 89.5918 9.95249 89.5918 9.30793C89.5918 8.66336 89.5117 8.09614 89.3247 7.60627C89.1377 7.1164 88.8973 6.70387 88.6035 6.34292C88.2829 6.00774 87.9357 5.74992 87.5083 5.56944C87.0809 5.38896 86.6535 5.31161 86.1994 5.31161C85.7453 5.31161 85.2912 5.38896 84.8905 5.56944C84.4631 5.74992 84.1159 6.00774 83.7953 6.34292C83.4748 6.67809 83.2344 7.09061 83.0741 7.60627C82.8871 8.09614 82.807 8.66336 82.807 9.30793C82.807 9.92671 82.9138 10.4939 83.0741 11.0096Z" fill="#00B7AC"/>
<path d="M94.4803 12.1954C94.6406 12.4532 94.881 12.6595 95.1481 12.8142C95.4152 12.9689 95.7358 13.072 96.083 13.1494C96.4303 13.2267 96.7776 13.2525 97.1515 13.2525C97.4454 13.2525 97.7392 13.2267 98.033 13.2009C98.3536 13.1493 98.6207 13.0978 98.8878 12.9689C99.1549 12.8657 99.3686 12.711 99.5289 12.479C99.6892 12.2727 99.796 11.9891 99.796 11.6797C99.796 11.2414 99.609 10.8805 99.2618 10.6484C98.9145 10.4164 98.4604 10.2359 97.9529 10.0812C97.4186 9.92652 96.8577 9.7976 96.2433 9.69447C95.6289 9.59134 95.0413 9.41086 94.5337 9.2046C93.9995 8.99834 93.5721 8.68895 93.2248 8.32799C92.8776 7.94125 92.6906 7.4256 92.6906 6.72946C92.6906 6.18803 92.8242 5.74972 93.0646 5.36298C93.305 4.97624 93.6255 4.66685 94.0262 4.4348C94.4002 4.20276 94.8543 4.02228 95.3351 3.89337C95.8159 3.79024 96.2967 3.71289 96.7775 3.71289C97.3919 3.71289 97.9796 3.76445 98.4871 3.86758C98.9947 3.97072 99.4755 4.1512 99.8762 4.40902C100.277 4.66685 100.597 5.00202 100.838 5.44033C101.078 5.87863 101.212 6.39429 101.265 7.03885H99.4755C99.4488 6.70368 99.3419 6.42007 99.2084 6.18803C99.0481 5.95598 98.8611 5.77551 98.6207 5.64659C98.3803 5.51768 98.1132 5.41455 97.8193 5.36298C97.5255 5.31142 97.2317 5.25985 96.9378 5.25985C96.6707 5.25985 96.4036 5.28563 96.1365 5.31142C95.8693 5.36298 95.6022 5.41455 95.3885 5.51768C95.1748 5.62081 94.9878 5.74972 94.8276 5.9302C94.694 6.11068 94.6139 6.31694 94.6139 6.60055C94.6139 6.90994 94.7207 7.14198 94.9344 7.34825C95.1481 7.55451 95.4419 7.70921 95.7625 7.83812C96.1098 7.96703 96.4837 8.07016 96.9111 8.17329C97.3385 8.25064 97.7659 8.35377 98.1666 8.4569C98.6207 8.56003 99.0481 8.66316 99.4755 8.79208C99.9029 8.92099 100.277 9.10147 100.624 9.33351C100.945 9.56556 101.212 9.84917 101.425 10.1843C101.639 10.5195 101.719 10.9578 101.719 11.4477C101.719 12.0923 101.586 12.6079 101.319 13.0462C101.051 13.4587 100.678 13.8197 100.25 14.0775C99.796 14.3354 99.3152 14.5158 98.7543 14.619C98.1933 14.7221 97.6323 14.7737 97.0981 14.7737C96.4837 14.7737 95.9228 14.7221 95.3618 14.5932C94.8009 14.4643 94.32 14.258 93.8926 14.0002C93.4653 13.7166 93.1447 13.3556 92.8776 12.8915C92.6372 12.4274 92.4769 11.886 92.4502 11.2414H94.2399C94.2132 11.6282 94.32 11.9376 94.4803 12.1954Z" fill="#00B7AC"/>
<path d="M104.978 4.02209V5.44013H105.032C105.325 4.84713 105.78 4.43461 106.421 4.17678C107.062 3.91895 107.756 3.79004 108.504 3.79004C109.359 3.79004 110.08 3.94474 110.721 4.22835C111.336 4.53774 111.87 4.92448 112.297 5.44013C112.725 5.95579 113.019 6.54879 113.232 7.19336C113.446 7.86371 113.553 8.55984 113.553 9.30754C113.553 10.0552 113.446 10.7514 113.259 11.4217C113.045 12.0921 112.751 12.6593 112.324 13.1749C111.897 13.6648 111.389 14.0515 110.748 14.3352C110.134 14.6188 109.386 14.7735 108.558 14.7735C108.29 14.7735 107.997 14.7477 107.649 14.6961C107.329 14.6446 106.982 14.5414 106.661 14.4383C106.341 14.3094 106.02 14.1547 105.753 13.9484C105.459 13.7422 105.219 13.4843 105.032 13.1749H104.978V18.5893H103.188V4.02209H104.978ZM111.443 7.76057C111.309 7.29649 111.095 6.88396 110.828 6.49722C110.561 6.13626 110.214 5.82687 109.76 5.62061C109.332 5.41435 108.825 5.28544 108.264 5.28544C107.649 5.28544 107.142 5.41435 106.714 5.62061C106.287 5.85266 105.94 6.16205 105.673 6.523C105.406 6.90974 105.219 7.32227 105.085 7.78635C104.978 8.25044 104.898 8.74032 104.898 9.23019C104.898 9.74584 104.951 10.2357 105.085 10.7256C105.219 11.2154 105.406 11.628 105.699 11.9889C105.967 12.3499 106.341 12.6593 106.768 12.8655C107.195 13.0976 107.73 13.2007 108.344 13.2007C108.958 13.2007 109.493 13.0976 109.893 12.8655C110.321 12.6335 110.641 12.3241 110.908 11.9374C111.149 11.5506 111.336 11.1123 111.469 10.6224C111.576 10.1326 111.63 9.64271 111.63 9.10127C111.656 8.71453 111.576 8.22466 111.443 7.76057Z" fill="#00B7AC"/>
<path d="M115.209 0H116.998V2.11418H115.209V0ZM116.998 14.5672H115.209V4.0221H116.998V14.5672Z" fill="#00B7AC"/>
<path d="M123.864 4.02186V5.54303H121.7V12.0918C121.7 12.2981 121.727 12.4528 121.754 12.5817C121.78 12.7106 121.86 12.788 121.941 12.8653C122.047 12.9427 122.181 12.9685 122.341 12.9942C122.528 13.02 122.742 13.02 123.036 13.02H123.864V14.5412H122.502C122.047 14.5412 121.647 14.5154 121.299 14.4381C120.979 14.3865 120.712 14.2576 120.498 14.1029C120.284 13.9482 120.151 13.7162 120.044 13.4068C119.937 13.0974 119.884 12.7106 119.884 12.2208V5.51725H118.014V3.99607H119.884V0.850586H121.673V4.02186H123.864Z" fill="#00B7AC"/>
<path d="M133.747 14.7733C133.293 14.7733 132.919 14.6444 132.625 14.3865C132.358 14.1287 132.225 13.7162 132.225 13.149C131.744 13.7162 131.156 14.1287 130.515 14.3865C129.874 14.6444 129.153 14.7733 128.405 14.7733C127.924 14.7733 127.443 14.7217 127.016 14.6186C126.589 14.5154 126.188 14.335 125.867 14.1029C125.547 13.8709 125.28 13.5615 125.093 13.1747C124.906 12.8138 124.799 12.3497 124.799 11.8083C124.799 11.2153 124.906 10.7254 125.119 10.3387C125.333 9.95191 125.6 9.64252 125.947 9.41047C126.295 9.17843 126.695 8.99795 127.123 8.86904C127.577 8.74012 128.031 8.63699 128.485 8.55964C128.966 8.45651 129.447 8.40495 129.901 8.35338C130.355 8.30182 130.729 8.22447 131.076 8.14712C131.423 8.06977 131.691 7.94086 131.878 7.76038C132.065 7.5799 132.171 7.34786 132.171 7.01268C132.171 6.62594 132.091 6.31655 131.958 6.08451C131.797 5.85246 131.61 5.67198 131.397 5.54307C131.183 5.41416 130.916 5.33681 130.622 5.31103C130.328 5.25946 130.061 5.25946 129.767 5.25946C129.019 5.25946 128.378 5.38837 127.871 5.67198C127.363 5.95559 127.096 6.47125 127.043 7.24473H125.253C125.28 6.60016 125.413 6.03294 125.68 5.59463C125.947 5.15633 126.268 4.79537 126.695 4.51176C127.123 4.22815 127.604 4.02189 128.165 3.91876C128.726 3.78985 129.286 3.73828 129.901 3.73828C130.382 3.73828 130.889 3.76407 131.37 3.84141C131.851 3.91876 132.305 4.04767 132.679 4.25393C133.08 4.4602 133.4 4.76959 133.641 5.13055C133.881 5.51729 133.988 6.00716 133.988 6.62594V12.0403C133.988 12.4528 134.015 12.7364 134.068 12.9427C134.121 13.1232 134.282 13.2263 134.575 13.2263C134.736 13.2263 134.923 13.2005 135.136 13.1232V14.4639C134.709 14.6959 134.282 14.7733 133.747 14.7733ZM131.236 9.46204C130.862 9.53938 130.489 9.59095 130.088 9.64252C129.687 9.69408 129.286 9.74565 128.886 9.79721C128.485 9.84878 128.111 9.95191 127.791 10.0808C127.47 10.2097 127.203 10.416 126.989 10.6738C126.776 10.9317 126.695 11.2668 126.695 11.7051C126.695 11.9887 126.749 12.2208 126.882 12.427C126.989 12.6333 127.149 12.788 127.336 12.9169C127.523 13.0458 127.764 13.1232 128.004 13.1747C128.271 13.2263 128.539 13.2521 128.806 13.2521C129.393 13.2521 129.901 13.1747 130.328 13.0201C130.756 12.8654 131.103 12.6591 131.37 12.427C131.637 12.195 131.824 11.9372 131.958 11.6536C132.091 11.37 132.145 11.1121 132.145 10.8801V9.10108C131.878 9.28156 131.584 9.38469 131.236 9.46204Z" fill="#00B7AC"/>
<path d="M138.101 0H136.312V14.5414H138.101V0Z" fill="#00B7AC"/>
<path d="M141.787 12.1954C141.947 12.4532 142.188 12.6595 142.455 12.8142C142.722 12.9689 143.042 13.072 143.39 13.1494C143.737 13.2267 144.084 13.2525 144.458 13.2525C144.752 13.2525 145.046 13.2267 145.34 13.2009C145.66 13.1493 145.927 13.0978 146.194 12.9689C146.461 12.8657 146.675 12.711 146.835 12.479C146.996 12.2727 147.076 11.9891 147.076 11.6797C147.076 11.2414 146.889 10.8805 146.542 10.6484C146.194 10.4164 145.74 10.2359 145.233 10.0812C144.698 9.92652 144.137 9.7976 143.523 9.69447C142.909 9.59134 142.321 9.41086 141.814 9.2046C141.279 8.99834 140.852 8.68895 140.505 8.32799C140.157 7.94125 139.97 7.4256 139.97 6.72946C139.97 6.18803 140.104 5.74972 140.344 5.36298C140.585 4.97624 140.905 4.66685 141.306 4.4348C141.68 4.20276 142.134 4.02228 142.615 3.89337C143.096 3.79024 143.577 3.71289 144.057 3.71289C144.672 3.71289 145.259 3.76445 145.767 3.86758C146.301 3.97072 146.755 4.1512 147.156 4.40902C147.557 4.66685 147.877 5.00202 148.118 5.44033C148.358 5.87863 148.492 6.39429 148.545 7.03885H146.755C146.729 6.70368 146.648 6.42007 146.488 6.18803C146.328 5.95598 146.141 5.77551 145.9 5.64659C145.66 5.51768 145.393 5.41455 145.099 5.36298C144.805 5.31142 144.511 5.25985 144.218 5.25985C143.951 5.25985 143.683 5.28563 143.416 5.31142C143.149 5.36298 142.882 5.41455 142.668 5.51768C142.455 5.62081 142.268 5.74972 142.107 5.9302C141.974 6.11068 141.894 6.31694 141.894 6.60055C141.894 6.90994 142.001 7.14198 142.214 7.34825C142.428 7.55451 142.722 7.70921 143.042 7.83812C143.39 7.96703 143.764 8.07016 144.191 8.17329C144.618 8.25064 145.046 8.35377 145.446 8.4569C145.9 8.56003 146.328 8.66316 146.755 8.79208C147.183 8.92099 147.557 9.10147 147.904 9.33351C148.224 9.56556 148.492 9.84917 148.705 10.1843C148.919 10.5195 148.999 10.9578 148.999 11.4477C148.999 12.0923 148.866 12.6079 148.598 13.0462C148.331 13.4587 147.957 13.8197 147.53 14.0775C147.076 14.3354 146.595 14.5158 146.034 14.619C145.473 14.7221 144.912 14.7737 144.378 14.7737C143.764 14.7737 143.203 14.7221 142.642 14.5932C142.081 14.4643 141.6 14.258 141.172 14.0002C140.745 13.7166 140.425 13.3556 140.157 12.8915C139.89 12.4274 139.757 11.886 139.73 11.2414H141.52C141.52 11.6282 141.6 11.9376 141.787 12.1954Z" fill="#00B7AC"/>
<path d="M103.216 21.915H103.964V26.7364H106.929V27.3294H103.216V21.915Z" fill="#034EA1"/>
<path d="M108.371 21.915H107.624V27.3294H108.371V21.915Z" fill="#034EA1"/>
<path d="M109.627 21.915H113.313V22.5338H110.375V24.2613H112.939V24.8543H110.375V27.3294H109.627V21.915Z" fill="#034EA1"/>
<path d="M114.141 21.915H117.988V22.5338H114.863V24.2613H117.801V24.8543H114.863V26.7364H118.015V27.3294H114.141V21.915Z" fill="#034EA1"/>
<path d="M118.976 21.915H119.858V22.7659C119.858 23.3589 119.59 23.8745 119.003 23.8745V23.4878C119.35 23.4878 119.457 23.101 119.457 22.7401H119.003V21.915H118.976Z" fill="#034EA1"/>
<path d="M124.345 23.5138C124.265 22.7403 123.731 22.4051 122.956 22.4051C122.315 22.4051 121.701 22.6372 121.701 23.3333C121.701 24.0036 122.609 24.1068 123.491 24.2872C124.372 24.4935 125.28 24.7771 125.28 25.86C125.28 27.0202 124.105 27.4843 123.09 27.4843C121.834 27.4843 120.766 26.8913 120.766 25.5764H121.46C121.46 26.4788 122.235 26.8913 123.09 26.8913C123.758 26.8913 124.506 26.685 124.506 25.9116C124.506 25.1639 123.597 25.0349 122.716 24.8545C121.808 24.674 120.926 24.4162 120.926 23.4106C120.926 22.302 121.941 21.8379 122.956 21.8379C124.105 21.8379 124.986 22.3535 125.013 23.5396H124.345V23.5138Z" fill="#034EA1"/>
<path d="M130.756 21.7861C132.545 21.7861 133.454 23.1526 133.454 24.6222C133.454 26.0918 132.545 27.4583 130.756 27.4583C128.966 27.4583 128.058 26.0918 128.058 24.6222C128.058 23.1526 128.966 21.7861 130.756 21.7861ZM130.756 26.8653C132.118 26.8653 132.706 25.7309 132.706 24.6222C132.706 23.5394 132.145 22.4049 130.756 22.4049C129.393 22.4049 128.806 23.5394 128.806 24.6222C128.806 25.7309 129.393 26.8653 130.756 26.8653Z" fill="#034EA1"/>
<path d="M134.336 21.915H135.137L138.102 26.3239V21.915H138.823V27.3294H137.995L135.057 22.9979V27.3294H134.336V21.915Z" fill="#034EA1"/>
<path fill-rule="evenodd" clip-rule="evenodd" d="M148.546 21.2705H141.574V27.9998H148.546V21.2705ZM144.539 22.2242C144.298 22.2242 144.085 22.4047 144.085 22.6625C144.085 22.8946 144.298 23.1008 144.539 23.1008C144.779 23.1008 144.993 22.9204 144.993 22.6625C144.966 22.4047 144.779 22.2242 144.539 22.2242ZM145.127 22.6625C145.127 22.4047 145.34 22.2242 145.581 22.2242C145.821 22.2242 146.008 22.4047 146.035 22.6625C146.035 22.9204 145.821 23.1008 145.581 23.1008C145.34 23.1008 145.127 22.8946 145.127 22.6625ZM144.539 23.2037C144.298 23.2037 144.085 23.3841 144.085 23.642C144.085 23.874 144.298 24.0803 144.539 24.0803C144.779 24.0803 144.993 23.8998 144.993 23.642C144.966 23.4099 144.779 23.2037 144.539 23.2037ZM145.127 23.642C145.127 23.3841 145.34 23.2037 145.581 23.2037C145.821 23.2037 146.008 23.4099 146.035 23.642C146.035 23.8998 145.821 24.0803 145.581 24.0803C145.34 24.0803 145.127 23.874 145.127 23.642ZM144.539 24.2094C144.298 24.2094 144.085 24.3898 144.085 24.6477C144.085 24.8797 144.298 25.086 144.539 25.086C144.779 25.086 144.993 24.9055 144.993 24.6477C144.966 24.3898 144.779 24.2094 144.539 24.2094ZM143.043 24.6477C143.043 24.3898 143.257 24.2094 143.497 24.2094C143.738 24.2094 143.951 24.3898 143.951 24.6477C143.951 24.9055 143.738 25.086 143.497 25.086C143.23 25.086 143.043 24.8797 143.043 24.6477ZM142.482 24.2094C142.242 24.2094 142.028 24.3898 142.028 24.6477C142.028 24.8797 142.215 25.086 142.482 25.086C142.723 25.086 142.936 24.9055 142.936 24.6477C142.91 24.3898 142.723 24.2094 142.482 24.2094ZM147.157 24.6477C147.157 24.3898 147.371 24.2094 147.611 24.2094C147.878 24.2094 148.065 24.3898 148.065 24.6477C148.065 24.9055 147.852 25.086 147.611 25.086C147.371 25.086 147.157 24.8797 147.157 24.6477ZM146.596 24.2094C146.355 24.2094 146.142 24.3898 146.142 24.6477C146.142 24.8797 146.355 25.086 146.596 25.086C146.836 25.086 147.05 24.9055 147.05 24.6477C147.023 24.3898 146.836 24.2094 146.596 24.2094ZM145.127 24.6477C145.127 24.3898 145.34 24.2094 145.581 24.2094C145.821 24.2094 146.008 24.3898 146.035 24.6477C146.035 24.9055 145.821 25.086 145.581 25.086C145.34 25.086 145.127 24.8797 145.127 24.6477ZM144.539 25.1893C144.298 25.1893 144.085 25.3698 144.085 25.6276C144.085 25.8597 144.298 26.0659 144.539 26.0659C144.779 26.0659 144.993 25.8597 144.993 25.6276C144.966 25.3956 144.779 25.1893 144.539 25.1893ZM145.127 25.6276C145.127 25.3698 145.34 25.1893 145.581 25.1893C145.821 25.1893 146.008 25.3956 146.035 25.6276C146.035 25.8597 145.821 26.0659 145.581 26.0659C145.34 26.0659 145.127 25.8597 145.127 25.6276ZM144.539 26.1949C144.298 26.1949 144.085 26.3754 144.085 26.6332C144.085 26.8653 144.298 27.0715 144.539 27.0715C144.779 27.0715 144.993 26.891 144.993 26.6332C144.966 26.3754 144.779 26.1949 144.539 26.1949ZM145.127 26.6332C145.127 26.3754 145.34 26.1949 145.581 26.1949C145.821 26.1949 146.008 26.3754 146.035 26.6332C146.035 26.891 145.821 27.0715 145.581 27.0715C145.34 27.0715 145.127 26.8653 145.127 26.6332Z" fill="#C4171C"/>
</svg>
